<svg xmlns="http://www.w3.org/2000/svg" width="460" height="220" viewBox="0 0 460 220" fill="none">
  <defs>
    <linearGradient id="shield" x1="258" y1="30" x2="372" y2="188" gradientUnits="userSpaceOnUse">
      <stop stop-color="#67E8F9"/>
      <stop offset="0.52" stop-color="#22D3EE"/>
      <stop offset="1" stop-color="#6366F1"/>
    </linearGradient>
    <linearGradient id="panel" x1="176" y1="18" x2="411" y2="204" gradientUnits="userSpaceOnUse">
      <stop stop-color="#172554" stop-opacity="0.78"/>
      <stop offset="1" stop-color="#0F172A" stop-opacity="0.1"/>
    </linearGradient>
    <filter id="glow" x="204" y="-10" width="224" height="236" filterUnits="userSpaceOnUse">
      <feGaussianBlur stdDeviation="18"/>
    </filter>
    <pattern id="grid" width="22" height="22" patternUnits="userSpaceOnUse">
      <path d="M22 0H0V22" stroke="#38BDF8" stroke-opacity="0.12"/>
    </pattern>
  </defs>

  <rect x="150" width="310" height="220" fill="url(#grid)"/>
  <circle cx="328" cy="108" r="90" fill="#22D3EE" fill-opacity="0.13" filter="url(#glow)"/>
  <path d="M182 173C219 151 235 165 263 133C292 101 310 124 338 82C358 53 386 70 430 31" stroke="#38BDF8" stroke-opacity="0.24" stroke-width="2" stroke-dasharray="5 7"/>
  <circle cx="182" cy="173" r="4" fill="#67E8F9"/>
  <circle cx="263" cy="133" r="4" fill="#67E8F9"/>
  <circle cx="338" cy="82" r="4" fill="#818CF8"/>
  <circle cx="430" cy="31" r="4" fill="#818CF8"/>

  <rect x="225" y="21" width="190" height="178" rx="28" fill="url(#panel)" stroke="#67E8F9" stroke-opacity="0.18"/>
  <path d="M320 43L377 63V105C377 145 354 174 320 187C286 174 263 145 263 105V63L320 43Z" fill="#020617" fill-opacity="0.72" stroke="url(#shield)" stroke-width="4"/>
  <path d="M343 89C337 81 329 77 319 77C301 77 289 90 289 108C289 126 301 139 319 139C329 139 338 135 344 127" stroke="url(#shield)" stroke-width="12" stroke-linecap="round"/>
  <path d="M319 109H355" stroke="#67E8F9" stroke-width="5" stroke-linecap="round"/>
  <circle cx="355" cy="109" r="8" fill="#67E8F9"/>
  <circle cx="320" cy="109" r="3" fill="#E0F2FE"/>

  <g fill="#67E8F9">
    <circle cx="204" cy="47" r="2"/>
    <circle cx="424" cy="89" r="2"/>
    <circle cx="210" cy="139" r="2"/>
  </g>
</svg>
