<svg xmlns="http://www.w3.org/2000/svg" width="282" height="159" viewBox="0 0 282 159" fill="none">
  <defs>
    <linearGradient id="cyberstancHomeShield" x1="120" y1="22" x2="225" y2="143" gradientUnits="userSpaceOnUse">
      <stop stop-color="#22D3EE"/>
      <stop offset="1" stop-color="#6366F1"/>
    </linearGradient>
    <pattern id="cyberstancHomeGrid" width="18" height="18" patternUnits="userSpaceOnUse">
      <path d="M18 0H0V18" stroke="#38BDF8" stroke-opacity="0.12"/>
    </pattern>
    <filter id="cyberstancHomeGlow" x="78" y="-24" width="210" height="210" filterUnits="userSpaceOnUse">
      <feGaussianBlur stdDeviation="22"/>
    </filter>
  </defs>

  <rect width="282" height="159" rx="20" fill="#071226"/>
  <rect width="282" height="159" rx="20" fill="url(#cyberstancHomeGrid)"/>
  <circle cx="188" cy="80" r="68" fill="#22D3EE" fill-opacity="0.15" filter="url(#cyberstancHomeGlow)"/>

  <path d="M18 132C55 108 77 122 102 90C127 58 149 83 173 52C193 27 219 38 265 14" stroke="#67E8F9" stroke-opacity="0.25" stroke-width="2" stroke-dasharray="5 7"/>
  <g fill="#67E8F9">
    <circle cx="18" cy="132" r="3"/>
    <circle cx="102" cy="90" r="3"/>
    <circle cx="173" cy="52" r="3"/>
  </g>
  <circle cx="265" cy="14" r="3" fill="#818CF8"/>

  <path d="M188 20L237 37V73C237 107 217 132 188 143C159 132 139 107 139 73V37L188 20Z" fill="#020617" fill-opacity="0.8" stroke="url(#cyberstancHomeShield)" stroke-width="3"/>
  <path d="M207 60C202 53 196 50 188 50C173 50 163 61 163 76C163 91 173 102 188 102C197 102 203 98 208 92" stroke="url(#cyberstancHomeShield)" stroke-width="10" stroke-linecap="round"/>
  <path d="M188 76H220" stroke="#67E8F9" stroke-width="4" stroke-linecap="round"/>
  <circle cx="220" cy="76" r="7" fill="#67E8F9"/>

  <g opacity="0.55">
    <rect x="20" y="24" width="60" height="8" rx="4" fill="#E0F2FE"/>
    <rect x="20" y="42" width="88" height="5" rx="2.5" fill="#94A3B8"/>
    <rect x="20" y="55" width="72" height="5" rx="2.5" fill="#64748B"/>
  </g>
</svg>
